Coordinates
version=1
nRows=5
nColumns=40
inDegrees=yes

Units are S.I. units (second, meters, Newtons, ...)
Angles are in degrees.

endheader
time	pelvis_tilt	pelvis_list	pelvis_rotation	pelvis_tx	pelvis_ty	pelvis_tz	hip_flexion_r	hip_adduction_r	hip_rotation_r	knee_angle_r	knee_angle_r_beta	ankle_angle_r	subtalar_angle_r	mtp_angle_r	hip_flexion_l	hip_adduction_l	hip_rotation_l	knee_angle_l	knee_angle_l_beta	ankle_angle_l	subtalar_angle_l	mtp_angle_l	lumbar_extension	lumbar_bending	lumbar_rotation	arm_flex_r	arm_add_r	arm_rot_r	elbow_flex_r	pro_sup_r	wrist_flex_r	wrist_dev_r	arm_flex_l	arm_add_l	arm_rot_l	elbow_flex_l	pro_sup_l	wrist_flex_l	wrist_dev_l
     48.37000000	     -3.31986838	     -4.90330338	      0.22482608	      0.96207368	      0.93354343	      0.41877136	     33.57639697	     -5.44013238	     -6.64121804	     60.72109449	     60.72109449	     -2.35552993	    -12.95733229	     -2.06562799	     10.69877592	     -3.65686134	     -4.28540787	     21.22328398	     21.22328398	     16.12520451	    -11.63740203	      2.64695007	    -11.44124928	      7.17895410	      1.19562575	      5.37572438	    -12.37578865	     -4.94622514	     28.64214600	     46.64593882	      0.00000000	      0.00000000	     18.05079971	    -15.22129108	     -3.10900970	     60.42046846	     46.78869594	      0.00000000	      0.00000000
     48.38285714	     -3.51006830	     -5.10516094	     -0.13061786	      0.96142802	      0.93367183	      0.41953072	     34.03052264	     -4.82268569	     -6.71408453	     57.67041350	     57.67041350	     -1.93224956	    -12.31350081	     -2.10520458	     10.16694977	     -3.97085290	     -4.75009686	     20.71230340	     20.71230340	     16.31553677	    -11.23911848	      2.39751461	    -11.48356517	      7.31059169	      1.46030219	      3.68813073	    -12.53920234	     -5.04951049	     27.28059226	     46.69330530	      0.00000000	      0.00000000	     19.11276766	    -15.36594243	     -3.72504928	     62.04650185	     46.87532781	      0.00000000	      0.00000000
     48.39571429	     -3.79496382	     -5.31475299	     -0.47960936	      0.96081932	      0.93348828	      0.42042876	     34.38357786	     -4.18380670	     -6.85564924	     54.16482801	     54.16482801	     -1.83198203	    -11.80952845	     -2.87241845	      9.78231638	     -4.35555601	     -5.42563902	     20.28719918	     20.28719918	     16.37428558	    -10.54848162	      1.46963005	    -11.41800023	      7.45347621	      1.03343180	      2.71782483	    -12.43878234	     -5.66838431	     25.32122630	     46.80703197	      0.00000000	      0.00000000	     19.22520240	    -15.78847640	     -5.19195920	     64.83528868	     47.05725668	      0.00000000	      0.00000000
     48.40857143	     -4.04332521	     -5.41929813	     -0.84680352	      0.96028800	      0.93326080	      0.42131031	     34.54952694	     -3.65978120	     -7.00620460	     50.36918554	     50.36918554	     -1.44606196	    -10.91773011	     -2.85430630	      9.30595089	     -4.54147917	     -5.84450180	     19.78579270	     19.78579270	     16.54974998	    -10.27623591	      1.28950048	    -11.38633246	      7.48717157	      1.30155349	      1.00816932	    -12.61029219	     -5.79685138	     24.36191700	     46.84151598	      0.00000000	      0.00000000	     20.19698717	    -15.89847190	     -5.70110235	     66.32988245	     47.13298433	      0.00000000	      0.00000000
     48.42142857	     -4.36710975	     -5.53926126	     -1.16299938	      0.95980325	      0.93279169	      0.42215395	     34.59451765	     -3.14346585	     -7.28924206	     46.22356862	     46.22356862	     -1.09208961	     -9.87578555	     -2.65249830	      8.96123399	     -4.73827022	     -6.18672391	     19.37750206	     19.37750206	     16.77303026	    -10.04580837	      1.10562629	    -11.20626191	      7.58365954	      1.24499445	     -0.57928099	    -12.76894138	     -5.89907177	     23.70510960	     46.86305741	      0.00000000	      0.00000000	     20.95273010	    -16.19767650	     -6.09580311	     67.50772239	     47.18959476	      0.00000000	      0.00000000
